<?xml version="1.0" encoding="UTF-8" standalone="no"?>
<!DOCTYPE svg PUBLIC "-//W3C//DTD SVG 1.1//EN"
 "http://www.w3.org/Graphics/SVG/1.1/DTD/svg11.dtd">
<!-- Generated by graphviz version 12.0.0 (0)
 -->
<!-- Title: snakemake_dag Pages: 1 -->
<svg width="276pt" height="404pt"
 viewBox="0.00 0.00 275.62 404.00" xmlns="http://www.w3.org/2000/svg" xmlns:xlink="http://www.w3.org/1999/xlink">
<g id="graph0" class="graph" transform="scale(1 1) rotate(0) translate(4 400)">
<title>snakemake_dag</title>
<polygon fill="white" stroke="none" points="-4,4 -4,-400 271.62,-400 271.62,4 -4,4"/>
<!-- 0 -->
<g id="node1" class="node">
<title>0</title>
<path fill="none" stroke="#d85656" stroke-width="2" d="M157.12,-36C157.12,-36 127.12,-36 127.12,-36 121.12,-36 115.12,-30 115.12,-24 115.12,-24 115.12,-12 115.12,-12 115.12,-6 121.12,0 127.12,0 127.12,0 157.12,0 157.12,0 163.12,0 169.12,-6 169.12,-12 169.12,-12 169.12,-24 169.12,-24 169.12,-30 163.12,-36 157.12,-36"/>
<text text-anchor="middle" x="142.12" y="-14.12" font-family="sans" font-size="10.00">all</text>
</g>
<!-- 1 -->
<g id="node2" class="node">
<title>1</title>
<path fill="none" stroke="#56c9d8" stroke-width="2" d="M78.25,-108C78.25,-108 12,-108 12,-108 6,-108 0,-102 0,-96 0,-96 0,-84 0,-84 0,-78 6,-72 12,-72 12,-72 78.25,-72 78.25,-72 84.25,-72 90.25,-78 90.25,-84 90.25,-84 90.25,-96 90.25,-96 90.25,-102 84.25,-108 78.25,-108"/>
<text text-anchor="middle" x="45.12" y="-86.12" font-family="sans" font-size="10.00">setup_directories</text>
</g>
<!-- 1&#45;&gt;0 -->
<g id="edge1" class="edge">
<title>1&#45;&gt;0</title>
<path fill="none" stroke="grey" stroke-width="2" d="M69.85,-71.15C81.14,-63.01 94.71,-53.22 107.03,-44.33"/>
<polygon fill="grey" stroke="grey" stroke-width="2" points="108.93,-47.27 114.99,-38.58 104.83,-41.6 108.93,-47.27"/>
</g>
<!-- 2 -->
<g id="node3" class="node">
<title>2</title>
<path fill="none" stroke="#56d8a9" stroke-width="2" d="M164.38,-108C164.38,-108 119.88,-108 119.88,-108 113.88,-108 107.88,-102 107.88,-96 107.88,-96 107.88,-84 107.88,-84 107.88,-78 113.88,-72 119.88,-72 119.88,-72 164.38,-72 164.38,-72 170.38,-72 176.38,-78 176.38,-84 176.38,-84 176.38,-96 176.38,-96 176.38,-102 170.38,-108 164.38,-108"/>
<text text-anchor="middle" x="142.12" y="-86.12" font-family="sans" font-size="10.00">select_snps</text>
</g>
<!-- 2&#45;&gt;0 -->
<g id="edge2" class="edge">
<title>2&#45;&gt;0</title>
<path fill="none" stroke="grey" stroke-width="2" d="M142.12,-71.34C142.12,-64.75 142.12,-57.08 142.12,-49.67"/>
<polygon fill="grey" stroke="grey" stroke-width="2" points="145.63,-49.93 142.13,-39.93 138.63,-49.93 145.63,-49.93"/>
</g>
<!-- 3 -->
<g id="node4" class="node">
<title>3</title>
<path fill="none" stroke="#d8cb56" stroke-width="2" d="M217.38,-180C217.38,-180 154.88,-180 154.88,-180 148.88,-180 142.88,-174 142.88,-168 142.88,-168 142.88,-156 142.88,-156 142.88,-150 148.88,-144 154.88,-144 154.88,-144 217.38,-144 217.38,-144 223.38,-144 229.38,-150 229.38,-156 229.38,-156 229.38,-168 229.38,-168 229.38,-174 223.38,-180 217.38,-180"/>
<text text-anchor="middle" x="186.12" y="-158.12" font-family="sans" font-size="10.00">haplotype_caller</text>
</g>
<!-- 3&#45;&gt;2 -->
<g id="edge4" class="edge">
<title>3&#45;&gt;2</title>
<path fill="none" stroke="grey" stroke-width="2" d="M175.02,-143.34C170.52,-136.18 165.21,-127.73 160.18,-119.73"/>
<polygon fill="grey" stroke="grey" stroke-width="2" points="163.27,-118.07 154.99,-111.46 157.35,-121.79 163.27,-118.07"/>
</g>
<!-- 7 -->
<g id="node8" class="node">
<title>7</title>
<path fill="none" stroke="#56d873" stroke-width="2" d="M255.62,-108C255.62,-108 206.62,-108 206.62,-108 200.62,-108 194.62,-102 194.62,-96 194.62,-96 194.62,-84 194.62,-84 194.62,-78 200.62,-72 206.62,-72 206.62,-72 255.62,-72 255.62,-72 261.62,-72 267.62,-78 267.62,-84 267.62,-84 267.62,-96 267.62,-96 267.62,-102 261.62,-108 255.62,-108"/>
<text text-anchor="middle" x="231.12" y="-86.12" font-family="sans" font-size="10.00">select_indels</text>
</g>
<!-- 3&#45;&gt;7 -->
<g id="edge8" class="edge">
<title>3&#45;&gt;7</title>
<path fill="none" stroke="grey" stroke-width="2" d="M197.48,-143.34C202.08,-136.18 207.51,-127.73 212.66,-119.73"/>
<polygon fill="grey" stroke="grey" stroke-width="2" points="215.52,-121.75 217.98,-111.45 209.63,-117.97 215.52,-121.75"/>
</g>
<!-- 4 -->
<g id="node5" class="node">
<title>4</title>
<path fill="none" stroke="#70d856" stroke-width="2" d="M217.75,-252C217.75,-252 154.5,-252 154.5,-252 148.5,-252 142.5,-246 142.5,-240 142.5,-240 142.5,-228 142.5,-228 142.5,-222 148.5,-216 154.5,-216 154.5,-216 217.75,-216 217.75,-216 223.75,-216 229.75,-222 229.75,-228 229.75,-228 229.75,-240 229.75,-240 229.75,-246 223.75,-252 217.75,-252"/>
<text text-anchor="middle" x="186.12" y="-230.12" font-family="sans" font-size="10.00">mark_duplicates</text>
</g>
<!-- 4&#45;&gt;3 -->
<g id="edge5" class="edge">
<title>4&#45;&gt;3</title>
<path fill="none" stroke="grey" stroke-width="2" d="M186.12,-215.34C186.12,-208.75 186.12,-201.08 186.12,-193.67"/>
<polygon fill="grey" stroke="grey" stroke-width="2" points="189.63,-193.93 186.13,-183.93 182.63,-193.93 189.63,-193.93"/>
</g>
<!-- 5 -->
<g id="node6" class="node">
<title>5</title>
<path fill="none" stroke="#5692d8" stroke-width="2" d="M202.38,-324C202.38,-324 169.88,-324 169.88,-324 163.88,-324 157.88,-318 157.88,-312 157.88,-312 157.88,-300 157.88,-300 157.88,-294 163.88,-288 169.88,-288 169.88,-288 202.38,-288 202.38,-288 208.38,-288 214.38,-294 214.38,-300 214.38,-300 214.38,-312 214.38,-312 214.38,-318 208.38,-324 202.38,-324"/>
<text text-anchor="middle" x="186.12" y="-302.12" font-family="sans" font-size="10.00">sort_bam</text>
</g>
<!-- 5&#45;&gt;4 -->
<g id="edge6" class="edge">
<title>5&#45;&gt;4</title>
<path fill="none" stroke="grey" stroke-width="2" d="M186.12,-287.34C186.12,-280.75 186.12,-273.08 186.12,-265.67"/>
<polygon fill="grey" stroke="grey" stroke-width="2" points="189.63,-265.93 186.13,-255.93 182.63,-265.93 189.63,-265.93"/>
</g>
<!-- 6 -->
<g id="node7" class="node">
<title>6</title>
<path fill="none" stroke="#afd856" stroke-width="2" d="M206.12,-396C206.12,-396 166.12,-396 166.12,-396 160.12,-396 154.12,-390 154.12,-384 154.12,-384 154.12,-372 154.12,-372 154.12,-366 160.12,-360 166.12,-360 166.12,-360 206.12,-360 206.12,-360 212.12,-360 218.12,-366 218.12,-372 218.12,-372 218.12,-384 218.12,-384 218.12,-390 212.12,-396 206.12,-396"/>
<text text-anchor="middle" x="186.12" y="-374.12" font-family="sans" font-size="10.00">map_reads</text>
</g>
<!-- 6&#45;&gt;5 -->
<g id="edge7" class="edge">
<title>6&#45;&gt;5</title>
<path fill="none" stroke="grey" stroke-width="2" d="M186.12,-359.34C186.12,-352.75 186.12,-345.08 186.12,-337.67"/>
<polygon fill="grey" stroke="grey" stroke-width="2" points="189.63,-337.93 186.13,-327.93 182.63,-337.93 189.63,-337.93"/>
</g>
<!-- 7&#45;&gt;0 -->
<g id="edge3" class="edge">
<title>7&#45;&gt;0</title>
<path fill="none" stroke="grey" stroke-width="2" d="M208.67,-71.34C198.42,-63.27 186.08,-53.57 174.82,-44.72"/>
<polygon fill="grey" stroke="grey" stroke-width="2" points="177.29,-42.2 167.27,-38.77 172.96,-47.71 177.29,-42.2"/>
</g>
</g>
</svg>
